<svg xmlns="http://www.w3.org/2000/svg" id="Capa_1" height="512" viewBox="0 0 512 512" width="512"><g><path d="m211.225 419.462h89.55v51.76h-89.55z" fill="#26a6fe"></path><path d="m211.225 419.462h34.514v51.76h-34.514z" fill="#0593fc"></path><path d="m487.709 54.556h-463.418c-13.395 0-24.291 10.897-24.291 24.291v313.594c0 15.451 12.57 28.021 28.021 28.021h455.957c15.451 0 28.021-12.57 28.021-28.021v-313.594c.001-13.394-10.895-24.291-24.29-24.291z" fill="#60b7ff"></path><path d="m64 392.441v-313.594c0-13.394 10.896-24.291 24.291-24.291h-64c-13.395 0-24.291 10.897-24.291 24.291v313.594c0 15.451 12.57 28.021 28.021 28.021h64c-15.451 0-28.021-12.57-28.021-28.021z" fill="#26a6fe"></path><path d="m487.709 69.556h-152.114v36.747c0 2.277-1.853 4.13-4.13 4.13h-75.465v174.921l5.114 1h231.219l4.667-1v-206.507c0-5.123-4.168-9.291-9.291-9.291z" fill="#d8ecfe"></path><path d="m243.573 110.434c-1.637 0-3.177.638-4.335 1.795l-25.559 25.56c-1.009 1.008-2.125 1.22-2.884 1.22-2.049 0-4.167-1.548-4.167-4.14v-18.304c0-3.38-2.75-6.13-6.13-6.13h-44.588c-2.277 0-4.13-1.853-4.13-4.13v-36.749h-127.489c-5.131 0-9.291 4.159-9.291 9.291v256.823c0 5.131 4.159 9.29 9.29 9.29h231.71l1-5.707v-228.819z" fill="#fee97d"></path><path d="m24.291 69.556c-5.131 0-9.291 4.159-9.291 9.291v256.823c0 5.131 4.159 9.29 9.29 9.29h39.71v-266.113c0-3.29.66-6.427 1.85-9.291z" fill="#fedf30"></path><g><path d="m391.257 510.98h-270.514c-5.667 0-10.261-4.594-10.261-10.261v-20.263c0-5.667 4.594-10.261 10.261-10.261h270.515c5.667 0 10.261 4.594 10.261 10.261v20.263c-.001 5.667-4.595 10.261-10.262 10.261z" fill="#60b7ff"></path></g><g><path d="m171.205 500.719v-20.263c0-5.667 4.594-10.261 10.261-10.261h-60.723c-5.667 0-10.261 4.594-10.261 10.261v20.263c0 5.667 4.594 10.261 10.261 10.261h60.723c-5.667 0-10.261-4.594-10.261-10.261z" fill="#26a6fe"></path></g><path d="m256 110.434h40.017v174.921h-40.017z" fill="#c4e2ff"></path><g><path d="m256 344.959h231.71c5.131 0 9.29-4.159 9.29-9.29v-50.315h-241z" fill="#8379c1"></path><path d="m256 285.354h40.017v59.605h-40.017z" fill="#6e61b6"></path><g><path d="m464.203 321h-167.906c-4.142 0-7.5-3.358-7.5-7.5s3.358-7.5 7.5-7.5h167.905c4.142 0 7.5 3.358 7.5 7.5s-3.357 7.5-7.499 7.5z" fill="#54469c"></path></g></g><g><g><g><path d="m158.668 215.625h-7.454c-5.83 3.039-12.447 4.768-19.464 4.768s-13.634-1.729-19.464-4.768h-7.454c-21.237 0-38.454 17.216-38.454 38.454v33.961c0 5.667 4.594 10.261 10.261 10.261h110.221c5.667 0 10.261-4.594 10.261-10.261v-33.961c0-21.238-17.216-38.454-38.453-38.454z" fill="#05e39c"></path><path d="m129.854 220.344c-6.313-.28-12.266-1.956-17.568-4.72h-7.453c-21.237 0-38.454 17.216-38.454 38.454v33.961c0 5.667 4.594 10.261 10.261 10.261h43.488c-5.667 0-10.261-4.594-10.261-10.261v-33.961c0-14.544 8.076-27.199 19.987-33.734z" fill="#0ed290"></path><g><circle cx="131.75" cy="178.132" fill="#0ed290" r="43.26"></circle></g><g><path d="m123.306 178.132c0-17.697 10.632-32.903 25.852-39.603-5.328-2.345-11.213-3.657-17.408-3.657-23.892 0-43.26 19.368-43.26 43.26s19.368 43.26 43.26 43.26c6.195 0 12.08-1.312 17.408-3.657-15.22-6.7-25.852-21.906-25.852-39.603z" fill="#00c285"></path></g></g></g><g><path d="m61.021 103h-20.521c-4.142 0-7.5-3.358-7.5-7.5s3.358-7.5 7.5-7.5h20.521c4.142 0 7.5 3.358 7.5 7.5s-3.357 7.5-7.5 7.5z" fill="#fff"></path></g></g><g><path d="m401.268 190.09h-6.3c-4.429 2.236-9.427 3.504-14.718 3.504s-10.289-1.268-14.718-3.504h-6.3c-16.583 0-30.025 13.443-30.025 30.025v11.489c0 2.833 2.297 5.13 5.13 5.13h91.826c2.833 0 5.13-2.297 5.13-5.13v-11.489c0-16.582-13.443-30.025-30.025-30.025z" fill="#8ac9fe"></path><path d="m379.713 193.58c-5.092-.083-9.902-1.33-14.181-3.49h-6.3c-16.583 0-30.025 13.443-30.025 30.025v11.489c0 2.833 2.297 5.13 5.13 5.13h34.531c-2.833 0-5.13-2.297-5.13-5.13v-11.489c0-11.505 6.474-21.493 15.975-26.535z" fill="#60b7ff"></path><g><circle cx="380.25" cy="160.815" fill="#60b7ff" r="33.779"></circle></g><g><path d="m372.973 160.815c0-13.952 8.46-25.925 20.528-31.078-4.069-1.737-8.547-2.701-13.251-2.701-18.655 0-33.779 15.123-33.779 33.779 0 18.655 15.123 33.779 33.779 33.779 4.704 0 9.182-.964 13.251-2.701-12.069-5.153-20.528-17.126-20.528-31.078z" fill="#26a6fe"></path></g></g><g><g><path d="m331.464 1.02h-175.554c-2.833 0-5.13 2.297-5.13 5.13v100.153c0 2.833 2.297 5.13 5.13 5.13h44.588c2.833 0 5.13 2.297 5.13 5.13v18.304c0 4.571 5.526 6.86 8.758 3.628l25.559-25.559c.962-.962 2.267-1.503 3.628-1.503h87.891c2.833 0 5.13-2.297 5.13-5.13v-100.153c.001-2.833-2.296-5.13-5.13-5.13z" fill="#fe7d43"></path></g><path d="m187.113 106.303v-100.153c0-2.833 2.297-5.13 5.13-5.13h-36.333c-2.833 0-5.13 2.297-5.13 5.13v100.153c0 2.833 2.297 5.13 5.13 5.13h36.333c-2.833.001-5.13-2.296-5.13-5.13z" fill="#fd6930"></path><g><g><path d="m301.894 38.339h-116.415c-4.142 0-7.5-3.358-7.5-7.5s3.358-7.5 7.5-7.5h116.415c4.142 0 7.5 3.358 7.5 7.5s-3.358 7.5-7.5 7.5z" fill="#fed2a4"></path></g><g><path d="m301.894 63.727h-116.415c-4.142 0-7.5-3.358-7.5-7.5s3.358-7.5 7.5-7.5h116.415c4.142 0 7.5 3.358 7.5 7.5s-3.358 7.5-7.5 7.5z" fill="#fed2a4"></path></g><g><path d="m257.242 89.114h-71.763c-4.142 0-7.5-3.358-7.5-7.5s3.358-7.5 7.5-7.5h71.763c4.142 0 7.5 3.358 7.5 7.5s-3.358 7.5-7.5 7.5z" fill="#fed2a4"></path></g></g></g></g></svg>