<svg xmlns="http://www.w3.org/2000/svg" height="512" viewBox="0 0 512 512" width="512"><g id="Flat"><path d="m24 24h464v336h-464z" fill="#cececc"></path><path d="m64 64h384v256h-384z" fill="#426887"></path><path d="m75.32 64h-11.32v11.32l-40-40v-11.32h11.32z" fill="#bebebc"></path><path d="m488 24v11.32l-40 40v-11.32h-11.32l40-40z" fill="#bebebc"></path><path d="m408 288h80v32h-80z" fill="#de5540"></path><g fill="#cececc"><path d="m408 304h80v16h-80z"></path><path d="m367.751 284h64.498v15.999h-64.498z" transform="matrix(.496 -.868 .868 .496 -51.976 494.438)"></path><path d="m312 304h56v16h-56z"></path></g><path d="m24 320h464v40h-464z" fill="#dfdfdd"></path><path d="m216 200v64l-40 48-40-48v-64z" fill="#fdc8a2"></path><path d="m328 319.77v136.23a32 32 0 0 1 -32 32h-240a32 32 0 0 1 -32-32v-136.23a31.105 31.105 0 0 1 22.93-30.02l41.07-11.2 24-6.55 24-8 40 48 40-48 24 8 24 6.55 41.07 11.2a31.105 31.105 0 0 1 22.93 30.02z" fill="#2d7dbe"></path><path d="m152 328 8 24h32l8-24-24-16z" fill="#426887"></path><path d="m112 272 24 64 40-24-40-48z" fill="#348ed8"></path><path d="m216 264-40 48 40 24 24-64z" fill="#348ed8"></path><path d="m192 352h-32l-8 136h48z" fill="#395d7b"></path><path d="m216 200v43.87a72.017 72.017 0 0 1 -80 0v-43.87z" fill="#fdbf92"></path><path d="m136 48h80a32 32 0 0 1 32 32v88a72 72 0 0 1 -72 72 72 72 0 0 1 -72-72v-88a32 32 0 0 1 32-32z" fill="#fdc8a2"></path><path d="m208 40v32a136.576 136.576 0 0 1 -96.57 40h-15.43v-24a63.945 63.945 0 0 1 64-64h9.37a54.636 54.636 0 0 1 38.63 16z" fill="#844e3a"></path><path d="m185.32 63.89a471.759 471.759 0 0 0 -86.35 23.54c-.14.06-.29.11-.44.16l-2.53.84v-.43a63.838 63.838 0 0 1 2.42-17.48 488 488 0 0 1 84.26-22.41z" fill="#784533"></path><g fill="#844e3a"><path d="m208 40v32a54.973 54.973 0 0 0 40 40v-32a40 40 0 0 0 -40-40z"></path><circle cx="144" cy="144" r="16"></circle><circle cx="208" cy="144" r="16"></circle></g><path d="m166.111 184h-6.111v16h6.111a84.213 84.213 0 0 0 37.467-8.845l-7.156-14.31a68.138 68.138 0 0 1 -30.311 7.155z" fill="#fdb683"></path><path d="m104 112a0 0 0 0 1 0 0v48a0 0 0 0 1 0 0 24 24 0 0 1 -24-24 24 24 0 0 1 24-24z" fill="#fdb683"></path><path d="m272 112a0 0 0 0 1 0 0v48a0 0 0 0 1 0 0 24 24 0 0 1 -24-24 24 24 0 0 1 24-24z" fill="#fdb683" transform="matrix(-1 0 0 -1 520 272)"></path><path d="m88 424h-64v32.88a31.116 31.116 0 0 0 31.12 31.12h56.88l120-32v-56z" fill="#3289d1"></path><path d="m232 400 48-24h48v56h-40l-1.373 1.373a77.254 77.254 0 0 1 -54.627 22.627z" fill="#fdc8a2"></path><path d="m264 424-144-24v56l120 32h56.88a31.116 31.116 0 0 0 31.12-31.12v-32.88z" fill="#348ed8"></path><path d="m144 432h16v16h-16z" fill="#2b78b7"></path><path d="m120 400-48-24h-48v56h40l1.373 1.373a77.254 77.254 0 0 0 54.627 22.627z" fill="#fdc8a2"></path><path d="m456 424h-152a22.627 22.627 0 0 1 0 32h152a16 16 0 0 0 16-16 16 16 0 0 0 -16-16z" fill="#ffb431"></path><path d="m472 392h-152a22.627 22.627 0 0 1 0 32h152a16 16 0 0 0 16-16 16 16 0 0 0 -16-16z" fill="#844e3a"></path><path d="m392 392h-72a22.627 22.627 0 0 1 0 32h72a16 16 0 0 0 16-16 16 16 0 0 0 -16-16z" fill="#f1ddc1"></path><path d="m456 360h-152a22.627 22.627 0 0 1 0 32h152a16 16 0 0 0 16-16 16 16 0 0 0 -16-16z" fill="#de5540"></path><path d="m376 360h-72a22.627 22.627 0 0 1 0 32h72a16 16 0 0 0 16-16 16 16 0 0 0 -16-16z" fill="#e9d6bb"></path><path d="m472 456h-152a22.627 22.627 0 0 1 0 32h152a16 16 0 0 0 16-16 16 16 0 0 0 -16-16z" fill="#426887"></path><path d="m376 424h-72a22.627 22.627 0 0 1 0 32h72a16 16 0 0 0 16-16 16 16 0 0 0 -16-16z" fill="#e9d6bb"></path><path d="m392 456h-72a22.627 22.627 0 0 1 0 32h72a16 16 0 0 0 16-16 16 16 0 0 0 -16-16z" fill="#f1ddc1"></path></g></svg>