<svg xmlns="http://www.w3.org/2000/svg" id="Layer_1" height="512" viewBox="0 0 512 512" width="512"><g><g><g><g><path d="m272 264h-32c-13.255 0-24-10.745-24-24v-48c0-13.255 10.745-24 24-24h32c13.255 0 24 10.745 24 24v48c0 13.255-10.745 24-24 24z" fill="#fab991"></path></g><g><path d="m240 264h32v16h-32z" fill="#f0915a"></path></g><g><path d="m336 416h-160v-88c0-26.51 21.49-48 48-48h64c26.51 0 48 21.49 48 48z" fill="#faa019"></path></g><g><path d="m272 168h-32c-13.255 0-24 10.745-24 24v24c4.418 0 8-3.582 8-8v-8c0-4.418 3.582-8 8-8h48c4.418 0 8 3.582 8 8v8c0 4.418 3.582 8 8 8v-24c0-13.255-10.745-24-24-24z" fill="#463c4b"></path></g><g><path d="m296 232v-24c4.418 0 8 3.582 8 8v8c0 4.418-3.582 8-8 8z" fill="#f0915a"></path></g><g><path d="m216 232v-24c-4.418 0-8 3.582-8 8v8c0 4.418 3.582 8 8 8z" fill="#f0915a"></path></g></g><g><path d="m204 328c2.209 0 4 1.791 4 4v84h-8v-84c0-2.209 1.791-4 4-4z" fill="#f06423"></path></g><g><path d="m308 328c2.209 0 4 1.791 4 4v84h-8v-84c0-2.209 1.791-4 4-4z" fill="#f06423"></path></g></g><g><path d="m312 368h40v32h-40z" fill="#faa019"></path></g><g><path d="m336 400h32c8.837 0 16-7.163 16-16 0-8.837-7.163-16-16-16h-16c-8.837 0-16 7.163-16 16z" fill="#fab991"></path></g><g><path d="m160 368h40v32h-40z" fill="#faa019"></path></g><g><path d="m144 400h32v-16c0-8.837-7.163-16-16-16h-16c-8.837 0-16 7.163-16 16 0 8.837 7.163 16 16 16z" fill="#fab991"></path></g><g><path d="m349.657 122.343-9.857-9.857c-10.632-10.632-24.766-16.486-39.8-16.486s-29.168 5.854-39.8 16.485l-9.857 9.857c-3.125 3.125-3.125 8.189 0 11.314l9.857 9.857c10.632 10.633 24.766 16.487 39.8 16.487s29.168-5.854 39.8-16.485l9.857-9.857c3.124-3.126 3.124-8.19 0-11.315z" fill="#f5826e"></path><path d="m261.656 122.343-9.857-9.856c-10.631-10.633-24.765-16.487-39.799-16.487s-29.168 5.854-39.799 16.485l-9.858 9.857c-1.5 1.501-2.343 3.535-2.343 5.657s.843 4.156 2.343 5.657l9.857 9.856c10.632 10.634 24.766 16.488 39.8 16.488s29.168-5.854 39.799-16.485l9.857-9.857c1.501-1.501 2.344-3.535 2.344-5.657s-.843-4.157-2.344-5.658z" fill="#f5826e"></path><path d="m318.226 57.774h-13.941c-15.034 0-29.169 5.854-39.798 16.485-10.632 10.631-16.487 24.765-16.487 39.8v13.941c0 4.418 3.582 8 8 8h13.941c15.034 0 29.169-5.854 39.798-16.485 10.632-10.63 16.486-24.765 16.486-39.799v-13.942c.001-4.418-3.581-8-7.999-8z" fill="#f04b37"></path><path d="m247.515 74.261c-10.631-10.632-24.765-16.486-39.799-16.486h-13.941c-4.418 0-8 3.582-8 8v13.941c0 15.034 5.855 29.168 16.485 39.798 10.63 10.632 24.764 16.486 39.799 16.486h13.941c4.418 0 8-3.582 8-8v-13.941c0-15.035-5.854-29.168-16.485-39.798z" fill="#f04b37"></path><path d="m271.515 44.2-9.857-9.857c-3.123-3.121-8.189-3.123-11.314 0l-9.858 9.858c-10.632 10.631-16.486 24.765-16.486 39.799s5.854 29.168 16.485 39.8l9.858 9.857c1.562 1.562 3.609 2.343 5.657 2.343 2.047 0 4.095-.781 5.657-2.343l9.857-9.857c10.632-10.632 16.486-24.766 16.486-39.8s-5.854-29.168-16.485-39.8z" fill="#e1322d"></path></g><g><g><path d="m424 136h-32c-8.837 0-16-7.163-16-16s7.163-16 16-16h32c8.837 0 16 7.163 16 16s-7.163 16-16 16z" fill="#faa019"></path></g><g><path d="m384 72c-4.095 0-8.189-1.563-11.313-4.687-6.249-6.248-6.249-16.379 0-22.627l24-24c6.248-6.248 16.379-6.248 22.627 0 6.249 6.248 6.249 16.379 0 22.627l-24 24c-3.125 3.125-7.219 4.687-11.314 4.687z" fill="#faa019"></path></g><g><path d="m408 224c-4.095 0-8.189-1.563-11.313-4.687l-24-24c-6.249-6.248-6.249-16.379 0-22.627 6.248-6.248 16.379-6.248 22.627 0l24 24c6.249 6.248 6.249 16.379 0 22.627-3.125 3.125-7.219 4.687-11.314 4.687z" fill="#faa019"></path></g></g><g><g><path d="m120 136h-32c-8.836 0-16-7.163-16-16s7.164-16 16-16h32c8.836 0 16 7.163 16 16s-7.164 16-16 16z" fill="#faa019"></path></g><g><path d="m128 72c-4.095 0-8.189-1.563-11.313-4.687l-24-24c-6.249-6.248-6.249-16.379 0-22.627 6.248-6.248 16.379-6.248 22.627 0l24 24c6.249 6.248 6.249 16.379 0 22.627-3.125 3.125-7.219 4.687-11.314 4.687z" fill="#faa019"></path></g><g><path d="m104 224c-4.095 0-8.189-1.563-11.313-4.687-6.249-6.248-6.249-16.379 0-22.627l24-24c6.248-6.248 16.379-6.248 22.627 0 6.249 6.248 6.249 16.379 0 22.627l-24 24c-3.125 3.125-7.219 4.687-11.314 4.687z" fill="#faa019"></path></g></g><g><path d="m191.996 496.009c-13.399 0-25.884-8.479-30.354-21.89-5.589-16.766 3.472-34.889 20.239-40.477l144-48c16.762-5.591 34.888 3.471 40.477 20.238 5.589 16.766-3.472 34.889-20.238 40.477l-144 48c-3.357 1.12-6.771 1.652-10.124 1.652z" fill="#463c4b"></path></g><g><path d="m167.59 497.435-15.179-45.536c-1.397-4.192.868-8.722 5.06-10.119l1.642-.547c12.575-4.192 26.166 2.604 30.358 15.179l5.06 15.178c4.192 12.575-2.604 26.166-15.179 30.358l-1.642.547c-4.192 1.397-8.723-.868-10.12-5.06z" fill="#f0915a"></path></g><g><path d="m320.005 496.009c-3.355 0-6.767-.531-10.124-1.651l-144-48c-16.767-5.588-25.828-23.711-20.239-40.477 5.589-16.767 23.712-25.832 40.477-20.238l144 48c16.767 5.588 25.827 23.711 20.238 40.477-4.468 13.408-16.955 21.889-30.352 21.889z" fill="#555a6e"></path></g><g><path d="m334.291 502.495-1.642-.547c-12.575-4.192-19.37-17.783-15.179-30.358l5.059-15.178c4.192-12.575 17.783-19.371 30.358-15.179l1.642.547c4.192 1.397 6.457 5.928 5.06 10.119l-15.179 45.536c-1.396 4.191-5.927 6.457-10.119 5.06z" fill="#fab991"></path></g></g></svg>