<svg xmlns="http://www.w3.org/2000/svg" xmlns:xlink="http://www.w3.org/1999/xlink" id="Capa_1" x="0px" y="0px" viewBox="0 0 512.001 512.001" style="enable-background:new 0 0 512.001 512.001;" xml:space="preserve">  <path style="fill:#FD9727;" d="M365.804,281.354l-100.183,26.05c-6.191,1.61-12.688,1.642-18.895,0.095L141.04,281.145 c-16.76-4.179-28.522-19.234-28.522-36.508V129.172C112.517,57.832,170.35,0,241.69,0h23.099 c71.34,0,129.172,57.832,129.172,129.172V244.94C393.961,262.073,382.386,277.042,365.804,281.354z"></path>  <path style="fill:#FF6D3A;" d="M264.789,0H241.69c-5.802,0-11.513,0.389-17.113,1.13c63.25,8.373,112.06,62.504,112.06,128.042 V244.94c0,17.133-11.575,32.103-28.157,36.415l-81.556,21.206l19.803,4.938c6.207,1.548,12.703,1.515,18.895-0.095l100.183-26.05 c16.582-4.312,28.157-19.281,28.157-36.415V129.172C393.961,57.832,336.129,0,264.789,0z"></path>  <g>	<path style="fill:#3D6687;" d="M118.496,209.813h27.41v-66.921h-27.41c-8.053,0-14.581,6.528-14.581,14.581v37.758  C103.915,203.285,110.443,209.813,118.496,209.813z"></path>	<path style="fill:#3D6687;" d="M393.504,209.813h-27.41v-66.921h27.41c8.053,0,14.581,6.528,14.581,14.581v37.758  C408.085,203.285,401.557,209.813,393.504,209.813z"></path></g>  <path style="fill:#FED9A8;" d="M317.892,326.579c-9.586-1.927-16.483-10.348-16.483-20.126V260.18H256l0,0h-45.408v46.273 c0,9.778-6.897,18.199-16.483,20.126l-11.064,2.224v74.309H256l0,0h72.956v-74.309L317.892,326.579z"></path>  <path style="fill:#FF4C4C;" d="M412.435,351.529l-91.078-28.398c-2.827-0.882-5.91-0.166-8.06,1.871L256,379.301l-57.297-54.298 c-2.15-2.037-5.233-2.753-8.06-1.871L99.565,351.53c-40.38,11.889-68.105,48.955-68.105,91.049v60.676 c0,4.83,3.916,8.746,8.746,8.746h431.589c4.83,0,8.746-3.916,8.746-8.746v-60.676C480.54,400.484,452.815,363.418,412.435,351.529z"></path>  <path style="fill:#EF2929;" d="M412.435,351.529l-91.078-28.398c-2.827-0.882-5.91-0.166-8.06,1.871l-10.71,10.15l52.524,16.377 c40.38,11.889,68.105,48.955,68.105,91.049V512h48.579c4.83,0,8.746-3.916,8.746-8.746v-60.676 C480.54,400.484,452.815,363.418,412.435,351.529z"></path>  <path style="fill:#FED9A8;" d="M256,298.654L256,298.654c-62.512,0-113.187-50.676-113.187-113.187v-31.809 c0-62.511,50.676-113.187,113.187-113.187l0,0c62.511,0,113.187,50.676,113.187,113.187v31.809 C369.187,247.979,318.512,298.654,256,298.654z"></path>  <path style="fill:#F4C892;" d="M311.862,55.2v130.267c0,52.608-35.893,96.83-84.525,109.522c9.155,2.389,18.759,3.665,28.662,3.665 l0,0c62.512,0,113.187-50.676,113.187-113.187v-31.809C369.187,111.463,346.095,74.665,311.862,55.2z"></path>  <g>	<path style="fill:#D4145A;" d="M198.703,325.003L256,379.301l-35.336,12.038c-8.658,2.949-18.24,0.385-24.268-6.494l-43.706-49.88  l37.953-11.833C193.471,322.25,196.554,322.966,198.703,325.003z"></path>	<path style="fill:#D4145A;" d="M313.297,325.003L256,379.301l32.026,10.91c10.661,3.632,22.46,0.474,29.882-7.996l41.402-47.25  l-37.953-11.833C318.529,322.25,315.446,322.966,313.297,325.003z"></path></g>  <path style="fill:#EDA558;" d="M188.389,467.088h-58.258c-3.235,0-5.857-2.622-5.857-5.857v-25.804c0-3.235,2.622-5.857,5.857-5.857 h58.258c3.235,0,5.857,2.622,5.857,5.857v25.804C194.247,464.465,191.624,467.088,188.389,467.088z"></path>  <path style="fill:#FD9727;" d="M393.961,153.031c0,0-48.834-3.876-65.544-48.795c0,0-118.049,94.511-215.9,48.795v-23.859 C112.517,57.832,170.35,0,241.69,0h23.099c71.34,0,129.172,57.832,129.172,129.172V153.031z"></path>  <path style="fill:#FF6D3A;" d="M264.789,0H241.69c-5.802,0-11.513,0.389-17.113,1.13c60.141,7.961,107.222,57.294,111.706,118.465 c20.593,30.487,57.678,33.436,57.678,33.436v-23.859C393.961,57.832,336.129,0,264.789,0z"></path>  <g>	<path style="fill:#D4145A;" d="M422.287,425.836c-4.271,0-7.734,3.462-7.734,7.734V512h15.467v-78.431  C430.021,429.298,426.558,425.836,422.287,425.836z"></path>	<path style="fill:#D4145A;" d="M89.713,425.836c-4.271,0-7.734,3.462-7.734,7.734V512h15.467v-78.431  C97.446,429.298,93.984,425.836,89.713,425.836z"></path></g>  <path style="fill:#3D6687;" d="M372.341,209.813v14.107c0,12.16-8.699,22.479-20.685,24.533l-77.823,13.346 c-4.206,0.72-7.031,4.715-6.31,8.921c0.645,3.764,3.912,6.422,7.606,6.422c0.434,0,0.873-0.036,1.315-0.112l77.823-13.345 c19.426-3.332,33.526-20.055,33.526-39.765v-14.107H372.341z"></path>  <path style="fill:#D4145A;" d="M276.179,284.582c-7.148,0-13.47-5.143-14.719-12.426c-1.396-8.138,4.071-15.868,12.209-17.264 l25.212-4.324c8.14-1.398,15.868,4.07,17.264,12.209c1.396,8.138-4.071,15.868-12.209,17.264l-25.212,4.324 C277.869,284.511,277.018,284.582,276.179,284.582z"></path>  <g></g>  <g></g>  <g></g>  <g></g>  <g></g>  <g></g>  <g></g>  <g></g>  <g></g>  <g></g>  <g></g>  <g></g>  <g></g>  <g></g>  <g></g></svg>