<svg xmlns="http://www.w3.org/2000/svg" id="Layer_1" viewBox="0 0 52 52"><g><g><path d="m42.6995506 8.1907063v39.3900833c0 1.3360958-1.0831146 2.4192104-2.4192047 2.4192104h-28.5606899c-1.336091 0-2.4192076-1.0831146-2.4192076-2.4192085v-39.3900852c0-1.336091 1.0831165-2.4192071 2.4192076-2.4192071h28.5606899c1.3360901 0 2.4192047 1.083116 2.4192047 2.4192071z" fill="#588fbc"></path><path d="m12.348 8.818h27.304v38.136h-27.304z" fill="#fff"></path><path d="m12.348 8.818h27.304v38.136h-27.304z" fill="#fff"></path><path d="m39.6543274 8.8211813v1.1900024h-26.1098642v36.9400034h-1.1899414l-.0100098-38.1300058z" fill="#e9f4ff"></path><g fill="#cce8ff"><path d="m15.109 13.548h21.783v1.509h-21.783z" transform="matrix(1 -.001 .001 1 -.018 .032)"></path><path d="m15.109 17.069h21.783v1.509h-21.783z" transform="matrix(1 -.001 .001 1 -.022 .032)"></path></g><path d="m34.729187 5.4025383v4.6457109c0 .445364-.3610382.8064022-.8064003.8064022h-15.8455734c-.4453621 0-.8064022-.3610382-.8064022-.8064022v-4.6457109c0-.445364.3610401-.8064027.8064022-.8064027h15.8455734c.4453621 0 .8064003.3610387.8064003.8064027z" fill="#ffdea4"></path><path d="m30.9222889 2.8064024v4.6457109c0 .4453635-.3610382.8064027-.8064022.8064027h-8.2317734c-.445364 0-.8064022-.3610392-.8064022-.8064027v-4.6457109c0-.4453637.3610382-.8064024.8064022-.8064024h8.2317734c.445364 0 .8064022.3610387.8064022.8064024z" fill="#ffdea4"></path><g><path d="m18.2145882 42.2265053h-1.1420689v-6.7728577c0-2.3324661 1.8974991-4.2299671 4.2299671-4.2299671h7.8710556c1.7026939 0 3.0878983-1.3852043 3.0878983-3.0875263v-4.936697h1.1420708v4.936697c0 2.3320961-1.897501 4.2295952-4.229969 4.2295952h-7.8710556c-1.7026939 0-3.0878983 1.3852043-3.0878983 3.0878983z" fill="#9cc2ff"></path></g><path d="m34.6899529 23.4880123c0 1.0278435-.8298798 1.8577671-1.8578148 1.8577671-1.0278435 0-1.8577213-.8299236-1.8577213-1.8577671s.8298779-1.857769 1.8577213-1.857769c1.027935 0 1.8578148.8299255 1.8578148 1.857769z" fill="#9cc2ff"></path><path d="m19.5016041 41.8920059c0 1.0278435-.8298779 1.857769-1.8578148 1.857769-1.0278435 0-1.8577213-.8299255-1.8577213-1.857769s.8298779-1.8577652 1.8577213-1.8577652c1.0279369 0 1.8578148.8299217 1.8578148 1.8577652z" fill="#9cc2ff"></path><g><g><g><path d="m32.102 35.439h5.254v1.142h-5.254z" fill="#ff71bf" transform="matrix(.707 -.707 .707 .707 -15.291 35.104)"></path></g><g><path d="m34.158 33.383h1.142v5.254h-1.142z" fill="#ff71bf" transform="matrix(.707 -.707 .707 .707 -15.291 35.104)"></path></g></g></g><g><g><path d="m14.197 26.321h5.254v1.142h-5.254z" fill="#ff71bf" transform="matrix(.707 -.707 .707 .707 -14.088 19.773)"></path></g><g><path d="m16.253 24.265h1.142v5.254h-1.142z" fill="#ff71bf" transform="matrix(.707 -.707 .707 .707 -14.088 19.773)"></path></g></g><g><path d="m25.234211 43.1642036c-1.3469715 0-2.4422512-1.0990829-2.4422512-2.4498596 0-1.3469696 1.0952797-2.4425964 2.4422512-2.4425964 1.3511219 0 2.4498596 1.0956268 2.4498596 2.4425964 0 1.3507767-1.0987377 2.4498596-2.4498596 2.4498596zm0-3.830368c-.761301 0-1.3801632.6192093-1.3801632 1.3805084 0 .7651062.6188622 1.3877716 1.3801632 1.3877716.7654514 0 1.3877697-.6226654 1.3877697-1.3877716 0-.7612991-.6223183-1.3805084-1.3877697-1.3805084z" fill="#bfe296"></path></g><g><path d="m25.9968185 26.8919888c-1.2393169 0-2.2476959-1.01124-2.2476959-2.2540569 0-1.2393188 1.008379-2.2476959 2.2476959-2.2476959 1.2431355 0 2.2540588 1.0083771 2.2540588 2.2476959.0000001 1.2428168-1.0109233 2.2540569-2.2540588 2.2540569zm0-3.5245495c-.7004566 0-1.2704926.5700359-1.2704926 1.2704926 0 .7039547.5700359 1.2768536 1.2704926 1.2768536.7042751 0 1.2768555-.5728989 1.2768555-1.2768536 0-.7004567-.5725803-1.2704926-1.2768555-1.2704926z" fill="#bfe296"></path></g></g></g></svg>