<svg xmlns="http://www.w3.org/2000/svg" id="Layer_1" viewBox="0 0 68 68"><g><g><g><path d="m46.5694389 65.9989853h-38.4307871c-3.2216611 0-5.8333335-2.6116676-5.8333335-5.8333321v-48.1613865c0-3.2216606 2.6116724-5.833333 5.8333335-5.833333h38.4307861c3.2216606 0 5.8333321 2.6116724 5.8333321 5.833333v48.1613846c.000001 3.2216664-2.6116705 5.833334-5.8333311 5.833334z" fill="#e5e8ef"></path></g></g><g><g><g><path d="m47.1944389 21.5459328h-39.6806645c-.5522461 0-1-.4477539-1-1s.4477539-1 1-1h39.6806641c.5522461 0 1 .4477539 1 1s-.4477535 1-.9999996 1z" fill="#cdd4df"></path></g></g></g><g><g><g><path d="m47.1944389 29.5115089h-39.6806645c-.5522461 0-1-.4477539-1-1s.4477539-1 1-1h39.6806641c.5522461 0 1 .4477539 1 1s-.4477535 1-.9999996 1z" fill="#cdd4df"></path></g></g></g><g><g><g><path d="m47.1944389 37.4770851h-39.6806645c-.5522461 0-1-.4477539-1-1s.4477539-1 1-1h39.6806641c.5522461 0 1 .4477539 1 1s-.4477535 1-.9999996 1z" fill="#cdd4df"></path></g></g></g><g><g><g><path d="m47.1944389 45.4429054h-39.6806645c-.5522461 0-1-.4477539-1-1s.4477539-1 1-1h39.6806641c.5522461 0 1 .4477539 1 1s-.4477535 1-.9999996 1z" fill="#cdd4df"></path></g></g></g><g><g><g><path d="m47.1944389 53.4084816h-39.6806645c-.5522461 0-1-.4477539-1-1s.4477539-1 1-1h39.6806641c.5522461 0 1 .4477539 1 1s-.4477535 1-.9999996 1z" fill="#cdd4df"></path></g></g></g><g><g><g><path d="m28.1944389 61.3740578h-20.6806645c-.5522461 0-1-.4477539-1-1s.4477539-1 1-1h20.6806641c.5522461 0 1 .4477539 1 1s-.4477535 1-.9999996 1z" fill="#cdd4df"></path></g></g></g><g><g><path d="m52.402935 15.1709337v-3.1665039c0-3.2216797-2.6118164-5.8334961-5.8334961-5.8334961h-38.430664c-3.2216802 0-5.8334966 2.6118164-5.8334966 5.8334961v3.1665039z" fill="#ffd80c"></path></g></g><g><g><g><path d="m15.3841362 3.900914v6.5c0 1.050293-.8500977 1.9101563-1.9001465 1.9101563s-1.9099121-.8598633-1.9099121-1.9101563v-6.5c0-1.0498047.8598633-1.8999023 1.9099121-1.8999023s1.9001465.8500976 1.9001465 1.8999023z" fill="#435e88"></path></g></g><g><g><path d="m24.6341362 3.900914v6.5c0 1.050293-.8500977 1.9101563-1.9001465 1.9101563s-1.9099121-.8598633-1.9099121-1.9101563v-6.5c0-1.0498047.8598633-1.8999023 1.9099121-1.8999023s1.9001465.8500976 1.9001465 1.8999023z" fill="#435e88"></path></g></g><g><g><path d="m33.8841362 3.900914v6.5c0 1.050293-.8500977 1.9101563-1.9001465 1.9101563s-1.9099121-.8598633-1.9099121-1.9101563v-6.5c0-1.0498047.8598633-1.8999023 1.9099121-1.8999023s1.9001465.8500976 1.9001465 1.8999023z" fill="#435e88"></path></g></g><g><g><path d="m43.1341362 3.900914v6.5c0 1.050293-.8500977 1.9101563-1.9001465 1.9101563s-1.9099121-.8598633-1.9099121-1.9101563v-6.5c0-1.0498047.8598633-1.8999023 1.9099121-1.8999023s1.9001465.8500976 1.9001465 1.8999023z" fill="#435e88"></path></g></g></g><g><g><g><path d="m15.3794975 3.900914v6.5c0 1.050293-.8500977 1.9101563-1.8999023 1.9101563-.2700195 0-.5200195-.0600586-.75-.1499023.6799316-.300293 1.1499023-.9804688 1.1499023-1.7602539v-6.5c0-.7797852-.4699707-1.4599609-1.1499023-1.7397461.2299805-.1103516.4799805-.1601563.75-.1601563 1.0498047-.0000001 1.8999023.8500976 1.8999023 1.8999023z" fill="#33527d"></path></g></g><g><g><path d="m24.6294975 3.900914v6.5c0 1.050293-.8500977 1.9101563-1.8999023 1.9101563-.2602539 0-.5200195-.0600586-.75-.1499023.6799316-.300293 1.1499023-.9804688 1.1499023-1.7602539v-6.5c0-.7797852-.4699707-1.4599609-1.1499023-1.7397461.2299805-.1103516.4897461-.1601563.75-.1601563 1.0498047-.0000001 1.8999023.8500976 1.8999023 1.8999023z" fill="#33527d"></path></g></g><g><g><path d="m33.8794975 3.900914v6.5c0 1.050293-.8500977 1.9101563-1.8999023 1.9101563-.2700195 0-.5200195-.0600586-.75-.1499023.6799316-.300293 1.1499023-.9804688 1.1499023-1.7602539v-6.5c0-.7797852-.4699707-1.4599609-1.1499023-1.7397461.2299805-.1103516.4799805-.1601563.75-.1601563 1.0498047-.0000001 1.8999023.8500976 1.8999023 1.8999023z" fill="#33527d"></path></g></g><g><g><path d="m43.1294975 3.900914v6.5c0 1.050293-.8500977 1.9101563-1.8999023 1.9101563-.2602539 0-.5200195-.0600586-.75-.1499023.6799316-.300293 1.1499023-.9804688 1.1499023-1.7602539v-6.5c0-.7797852-.4699707-1.4599609-1.1499023-1.7397461.2299805-.1103516.4897461-.1601563.75-.1601563 1.0498047-.0000001 1.8999023.8500976 1.8999023 1.8999023z" fill="#33527d"></path></g></g></g><g><g><g><g><path d="m40.217 28.101h28.034v9.911h-28.034z" fill="#008732" transform="matrix(.367 -.93 .93 .367 3.596 71.396)"></path></g></g><g><g><path d="m37.912 29.671h28.034v4.955h-28.034z" fill="#4cc66e" transform="matrix(.367 -.93 .93 .367 2.981 68.676)"></path></g></g><g><g><path d="m40.217 31.317h28.034v3.48h-28.034z" fill="#14a142" transform="matrix(.367 -.93 .93 .367 3.596 71.396)"></path></g></g><g><g><path d="m58.843 14.281h1.674v9.911h-1.674z" fill="#e5e8ef" transform="matrix(.367 -.93 .93 .367 19.903 67.709)"></path></g></g><g><g><path d="m55.3768654 16.6411324.9122543-2.3150272c.5351295-1.3579903 2.0698242-2.0250711 3.4278374-1.4899664l4.3030701 1.6955643c1.358017.5351048 2.0250931 2.0697622 1.4899673 3.4277544l-.9122543 2.3150253z" fill="#b244f1"></path></g></g><g><g><path d="m59.7153282 12.8358555 3.193222 1.2580528c-1.3545494-.5335531-2.8913612.13445-3.4252548 1.4888515l-.9127502 2.3162785-3.192997-1.2581501.9127464-2.3162785c.5336266-1.3544149 2.0706597-2.0225162 3.4250336-1.4887542z" fill="#8d30d6"></path></g></g><g><g><path d="m53.7059288 47.9145088-3.6258125 3.2353974-5.1494561-2.0291481-.4440917-4.8388901z" fill="#ffd80c"></path></g></g><g><g><path d="m44.9309769 49.1202927.2510948 2.7255745c.1293221 1.4039803 1.8015671 2.0629044 2.8539085 1.1245422l2.0429611-1.8216362z" fill="#435e88"></path></g></g></g></g></g></svg>