<svg xmlns="http://www.w3.org/2000/svg" id="Layer_1" height="512" viewBox="0 0 68 68" width="512"><g id="_x39_5"><g><g><path d="m8.2 10.1c-.5.3-.5 1-.2 1.4l2.2 2.8 3.3 4.2c.4.5 1 .5 1.5.2.4-.3.5-1 .2-1.4l-3.3-4.2-2.2-2.8c-.4-.5-1-.6-1.5-.2z" fill="#423d9b"></path></g></g><g><g><g><g><g><g><path d="m54.3 10.1c.5.3.5 1 .2 1.4l-2.2 2.8-3.3 4.2c-.4.5-1 .5-1.5.2-.4-.3-.5-1-.2-1.4l3.3-4.2 2.2-2.8c.4-.5 1.1-.6 1.5-.2z" fill="#423d9b"></path></g></g><g><g><path d="m54.9 23.5-13.9-10.6c2.9-3.8 8.4-4.6 12.2-1.6 3.9 2.9 4.6 8.3 1.7 12.2z" fill="#ffd06c"></path></g></g><g><g><ellipse cx="48" cy="18.2" fill="#febc1f" rx="2.3" ry="8.7" transform="matrix(.606 -.795 .795 .606 4.425 45.313)"></ellipse></g></g><g><g><path d="m50.2 17-2.8 3.6-3.3 4.2c-.3.4-1 .5-1.4.2s-.5-1-.2-1.4l3.3-4.2 2.8-3.6c.3.2.5.4.8.6s.6.4.8.6z" fill="#423d9b"></path></g></g></g><g><g><g><path d="m7.6 23.5 13.9-10.6c-2.9-3.8-8.4-4.6-12.2-1.6-3.9 2.9-4.6 8.3-1.7 12.2z" fill="#ffd06c"></path></g></g><g><g><ellipse cx="14.5" cy="18.2" fill="#febc1f" rx="8.7" ry="2.3" transform="matrix(.795 -.606 .606 .795 -8.055 12.527)"></ellipse></g></g><g><g><path d="m12.3 17 2.8 3.6 3.3 4.2c.3.4 1 .5 1.4.2s.5-1 .2-1.4l-3.3-4.2-2.8-3.6c-.3.2-.5.4-.8.6s-.6.4-.8.6z" fill="#423d9b"></path></g></g></g></g><g><g><path d="m33.2 13.4v7.7h-3.9v-7.7c0-1.1.9-1.9 1.9-1.9.5 0 1 .2 1.4.6.4.2.6.7.6 1.3z" fill="#e11226"></path></g></g><g><g><g><circle cx="31.2" cy="41.7" fill="#f34b58" r="24.3"></circle></g></g><g><g><circle cx="31.2" cy="41.7" fill="#fff" r="18.8"></circle></g></g><g><g><g><path d="m23.4 29.6-.7-1.2c-.2-.4-.1-.8.3-1s.8-.1 1 .3l.7 1.2c.2.4.1.8-.3 1s-.8.1-1-.3z" fill="#423d9b"></path></g></g></g><g><g><g><path d="m18.4 35.2-1.2-.7c-.4-.2-.5-.7-.3-1s.7-.5 1-.3l1.2.7c.4.2.5.7.3 1s-.7.5-1 .3z" fill="#423d9b"></path></g></g></g><g><g><g><path d="m16.8 42.5h-1.4c-.4 0-.7-.3-.7-.7s.3-.8.7-.8h1.4c.4 0 .7.3.7.7s-.3.8-.7.8z" fill="#423d9b"></path></g></g></g><g><g><g><path d="m45.4 34.4-1.2.7c-.4.2-.8.1-1-.3s-.1-.8.3-1l1.2-.7c.4-.2.8-.1 1 .3.1.4 0 .8-.3 1z" fill="#423d9b"></path></g></g><g><g><path d="m19.1 49.6-1.2.7c-.4.2-.8.1-1-.3s-.1-.8.3-1l1.2-.7c.4-.2.8-.1 1 .3s.1.8-.3 1z" fill="#423d9b"></path></g></g></g><g><g><g><path d="m39.8 28.4-.7 1.2c-.2.4-.7.5-1 .3s-.5-.7-.3-1l.7-1.2c.2-.4.7-.5 1-.3.4.2.5.6.3 1z" fill="#423d9b"></path></g></g><g><g><path d="m24.7 54.6-.7 1.2c-.2.4-.7.5-1 .3-.4-.2-.5-.7-.3-1l.7-1.2c.2-.4.7-.5 1-.3.4.2.5.7.3 1z" fill="#423d9b"></path></g></g></g><g><g><g><path d="m32 25.9v1.4c0 .4-.3.7-.7.7s-.7-.3-.7-.7v-1.4c0-.4.3-.7.7-.7.4-.1.7.3.7.7z" fill="#423d9b"></path></g></g><g><g><path d="m32 56.2v1.4c0 .4-.3.7-.7.7s-.7-.3-.7-.7v-1.4c0-.4.3-.7.7-.7.4-.1.7.3.7.7z" fill="#423d9b"></path></g></g></g><g><g><g><path d="m23.1 50c-.2-.2-.2-.6 0-.8l7-7c.2-.2.6-.2.8 0s.2.6 0 .8l-7 7c-.2.2-.6.2-.8 0z" fill="#423d9b"></path></g></g></g><g><g><g><path d="m39.4 42.6h-8.1c-.5 0-.9-.4-.9-.9s.4-.9.9-.9h8.1c.5 0 .9.4.9.9s-.4.9-.9.9z" fill="#423d9b"></path></g></g></g><g><g><g><path d="m31.3 42.5c-.2 0-.4-.1-.6-.3l-7.7-7.7c-.3-.3-.3-.9 0-1.2s.9-.3 1.2 0l7.7 7.7c.3.3.3.9 0 1.2-.2.3-.4.3-.6.3z" fill="#423d9b"></path></g></g></g><g><g><path d="m33.7 41.7c0 1.3-1.1 2.4-2.4 2.4s-2.4-1.1-2.4-2.4 1.1-2.4 2.4-2.4 2.4 1.1 2.4 2.4z" fill="#f34b58"></path></g></g><g><g><path d="m32.2 41.7c0 .5-.4 1-1 1-.5 0-1-.4-1-1s.4-1 1-1c.6.1 1 .5 1 1z" fill="#fff"></path></g></g><g><g><path d="m40.6 22.5c1.5.4 3.4 1.3 5.2 2.9s2.9 3.4 3.4 4.9c-1-1-2.7-2.8-4.1-4.1-1.4-1.4-3.4-2.8-4.5-3.7z" fill="#fff"></path></g></g></g><g><g><path d="m31.2 15.9c-3.8 0-6.9-3.1-6.9-6.9s3.1-7 6.9-7 6.9 3.1 6.9 6.9-3 7-6.9 7zm0-11.7c-2.6 0-4.8 2.1-4.8 4.8 0 2.6 2.1 4.8 4.8 4.8s4.8-2.2 4.8-4.9c0-2.6-2.1-4.7-4.8-4.7z" fill="#423d9b"></path></g></g></g><g><g><g><g><path d="m62.2 52.5v1.8c0 .7-.5 1.4-1.2 1.5l-1.3.3c-.5.1-.9.4-1.1.9 0 .1-.1.1-.1.2-.2.5-.2 1 .1 1.5l.7 1.1c.4.6.3 1.4-.2 1.9l-1.2 1.3c-.5.5-1.3.6-1.9.2l-1.2-.8c-.4-.3-1-.3-1.4-.1-.5.2-.8.6-.9 1.1l-.5 1.4c-.1.7-.8 1.2-1.5 1.2h-1.8c-.7 0-1.4-.5-1.5-1.2l-.3-1.4c-.1-.5-.5-.9-.9-1.1-.5-.2-1-.1-1.4.1l-1.2.8c-.6.4-1.4.3-1.9-.2l-1.5-1.3c-.5-.5-.6-1.3-.2-1.9l.7-1.1c.3-.4.3-1 .1-1.5 0-.1-.1-.1-.1-.2-.2-.5-.6-.8-1.1-.9l-1.3-.3c-.6-.1-1.1-.8-1.1-1.5v-1.8c0-.7.5-1.4 1.2-1.5l1-.2c.5-.1.9-.5 1.1-1 0-.1.1-.3.2-.4.2-.5.1-1-.1-1.4l-.6-1c-.4-.6-.3-1.4.2-1.9l1.3-1.3c.5-.5 1.3-.6 1.9-.2l.7.5c.4.3 1 .3 1.5.1.2-.1.4-.2.6-.2.5-.2.8-.6.9-1.1l.2-.9c.1-.7.8-1.2 1.5-1.2h1.8c.7 0 1.4.5 1.5 1.2l.2.9c.1.5.5.9.9 1.1.2.1.4.2.6.2.5.2 1 .2 1.5-.1l.7-.5c.6-.4 1.4-.3 1.9.2l1.3 1.3c.5.5.6 1.3.2 1.9l-.6.9c-.3.4-.3 1-.1 1.4.1.1.1.3.2.4.2.5.6.9 1.1 1l1 .2c.9.2 1.4.8 1.4 1.6z" fill="#57b3fe"></path></g></g><g><path d="m55.3 53.4c0 3.1-2.5 5.7-5.7 5.7s-5.7-2.5-5.7-5.7c0-3.1 2.5-5.7 5.7-5.7s5.7 2.5 5.7 5.7z" fill="#423d9b"></path></g><g><path d="m53.9 53.4c0 2.4-1.9 4.3-4.3 4.3s-4.3-1.9-4.3-4.3 1.9-4.3 4.3-4.3c2.3 0 4.3 1.9 4.3 4.3z" fill="#fff"></path></g></g><g><path d="m49 60.8c-1 .2-2.1.1-3-.3s-1.8-1.1-2.2-2c.8.6 1.6 1.1 2.5 1.5.8.3 1.7.5 2.7.8z" fill="#fff"></path></g></g></g><g><path d="m7.8 20.5c-.4-.6-.8-1.6-.7-2.8s.6-2.1 1.1-2.7c-.2.8-.4 1.7-.5 2.7-.1 1.1 0 2.1.1 2.8z" fill="#fff"></path></g></g></svg>