<svg xmlns="http://www.w3.org/2000/svg" id="Flat" height="512" viewBox="0 0 512 512" width="512"><g><path d="m448.732 86.37-35.504 73.457-13.268-22.979-143.959 83.119-19.333-33.493 143.96-83.109-13.268-22.979z" fill="#0093ec"></path><path d="m503.497 201.458v310.542h-123.753v-244.917-65.625z" fill="#0093ec"></path><path d="m379.744 267.083v244.917h-123.743v-171.479-73.438z" fill="#40c8a0"></path><path d="m256.001 340.521v171.479h-123.754v-91.317-80.162z" fill="#f09e38"></path><path d="m8.503 420.683h123.744v91.317h-123.744z" fill="#ee3329"></path><path d="m93.035 224.559s-2.123 40.442-2.987 57.052c-.243 4.652-1.524 9.193-3.738 13.288-9.347 17.127-35.434 62.964-44.363 57.894-7.578-4.297 12.16-52.581 18.347-67.179 1.168-2.743 1.687-5.719 1.514-8.696-1.117-18.56-5.262-87.629-5.262-87.629h.01c.671 5.069 3.312 12.536 12.181 18.966 4.865 3.534 14.058 9.64 24.298 16.304z" fill="#3d4657"></path><path d="m161.515 235.5c3.575 3.993 5.303 9.306 4.754 14.639-2.144 20.542-8.086 71.66-14.039 71.884-7.05.254-10.361-47.065-11.245-62.294-.164-2.925-1.718-5.587-4.195-7.152-8.107-5.13-27.277-17.29-43.754-28.018-10.24-6.664-19.434-12.77-24.3-16.305-8.869-6.431-11.51-13.897-12.181-18.966-.479-3.576.029-5.963.029-5.963l1.18-6.735h58.107l-1.117 6.735c0-.001 33.259 37.11 46.761 52.175z" fill="#3d4657"></path><path d="m155.725 120.432-20.137 14.527c-5.524-7.751-10.371-14.527-10.371-14.527l-9.346 56.158h-58.107l10.972-62.567s-9.692 2.519-16.905 4.398l-8.776-23.751c7.243-3.129 15.624-6.745 22.41-9.681 8.533-3.688 17.92-4.979 27.135-3.749 8.989 1.198 20.713 2.753 30.343 4.043 11.073 1.473 20.612 8.533 25.255 18.692 2.416 5.272 5.088 11.123 7.527 16.457z" fill="#b19fdf"></path><path d="m153.348 23.771v.01c-2.429 6.928-13.715 8.858-24.158 4.693-8.462-3.382-15.451-2.194-16.081 10.637-.619 12.83-14.323 13.643-23.213 10.108h-.01c-2.194-4.521-3.424-9.59-3.424-14.954 0-18.925 15.34-34.265 34.266-34.265 15.258 0 28.19 9.976 32.62 23.771z" fill="#1f2c40"></path><g fill="#f0a583"><path d="m221.715 146.093c.255 4.724-48.314 12.089-45.339 11.246 0 0-5.363 0-11.103 0-8.614 0-16.682-4.155-21.679-11.164-2.521-3.536-5.344-7.487-8.007-11.215l20.137-14.527c2.111 4.623 4.053 8.858 5.465 11.947 1.452 3.18 4.52 5.333 8.004 5.618 14.569 1.217 52.34 4.691 52.522 8.095z"></path><path d="m43.054 94.669 8.776 23.751c-.334.082-.66.173-.975.254-4.195 1.087-7.548 4.226-8.909 8.34-5.232 15.746-18.55 54.217-23.438 53.608-4.104-.518 2.459-45.125 5.923-66.966 1.169-7.324 6.005-13.542 12.812-16.477 1.809-.783 3.759-1.626 5.811-2.51z"></path><path d="m153.348 23.782c1.066 3.302 1.635 6.826 1.635 10.483 0 18.916-15.34 34.256-34.255 34.256-13.562 0-25.285-7.873-30.842-19.302h.01c8.89 3.535 22.594 2.722 23.213-10.108.63-12.831 7.619-14.019 16.081-10.637 10.443 4.166 21.729 2.236 24.158-4.692z"></path></g><path d="m262.48 182.828 135.163-78.029c2.334-1.348 4.036-3.566 4.733-6.169s.332-5.375-1.015-7.709l-3.673-6.361 47.329 3.48-20.652 42.726-3.673-6.361c-1.347-2.333-3.564-4.036-6.168-4.733-.865-.231-1.749-.346-2.629-.346-1.768 0-3.521.462-5.079 1.361l-135.16 78.039z" fill="#01d0fb"></path><path d="m400.062 201.458h103.436v290.225h-103.436z" fill="#01d0fb"></path><path d="m276.318 267.083h103.426v224.599h-103.426z" fill="#6fd7a3"></path><path d="m152.564 340.521h103.437v151.162h-103.437z" fill="#ffab5f"></path><path d="m28.82 420.683h103.427v71h-103.427z" fill="#fd4755"></path><path d="m63.609 327.466c3.051-9.329 7.632-21.628 14.163-37.043 1.767-4.143 2.564-8.73 2.303-13.248-.607-10.088-2.105-35.056-3.35-55.774 3.65 2.492 8.321 5.603 13.985 9.313-.621 11.813-2.02 38.499-2.683 51.215-.161 3.118-1.036 6.225-2.527 8.982-8.963 16.427-16.242 28.262-21.891 36.555z" fill="#5d6266"></path><path d="m160.709 275.498c-.53-5.872-1.025-12.5-1.456-19.914-.345-6.175-3.679-11.848-8.915-15.153-9.539-6.036-27.906-17.702-43.635-27.941-11.673-7.597-19.703-12.983-23.871-16.011-4.76-3.451-7.476-7.514-8.079-12.08-.061-.447-.092-.853-.106-1.208h38.67c.438 1.223 1.111 2.365 1.999 3.357l46.761 52.175c1.661 1.854 2.47 4.341 2.215 6.819-1.193 11.425-2.406 21.418-3.583 29.956z" fill="#5d6266"></path><path d="m80.188 164.399 8.882-50.654c.598-3.404-.577-6.878-3.118-9.222-1.898-1.751-4.366-2.691-6.889-2.691-.852 0-1.709.107-2.555.327l-8.008 2.083-2.252-6.095 13.577-5.866c5.167-2.232 10.651-3.366 16.301-3.366 1.817 0 3.652.122 5.456.363l10.098 1.344c6.742.896 13.939 1.854 20.241 2.698 7.666 1.02 14.153 5.821 17.364 12.846 1.308 2.852 2.687 5.866 4.063 8.874l-5.093 3.674c-2.65-3.713-4.446-6.223-4.446-6.223-1.934-2.704-5.031-4.25-8.262-4.25-.763 0-1.534.086-2.296.263-4.003.929-7.052 4.176-7.727 8.228l-7.935 47.667z" fill="#dedbee"></path><path d="m103.537 22.268c-.49-.286-.978-.617-1.455-.98.554-2.101 1.396-4.123 2.521-6.045 6.708-11.476 21.502-15.354 32.976-8.645 6.975 4.077 11.286 11.189 11.881 18.915-.112-.062-.228-.127-.343-.196-1.992-1.164-3.881-2.852-5.465-4.883-2.605-3.347-5.287-5.803-8.189-7.5-7.536-4.406-18.74-4.287-27.58 9.262-.745 1.142-1.234 1.892-4.346.072z" fill="#37454f"></path></g></svg>