<svg xmlns="http://www.w3.org/2000/svg" clip-rule="evenodd" fill-rule="evenodd" height="513" viewBox="0 0 110852 110852" width="513"><g id="Name"><g id="_392607384"><path d="m55426 110852c30528 0 55426-24899 55426-55426 0-30528-24898-55426-55426-55426s-55426 24899-55426 55426 24899 55426 55426 55426z" fill="#ff757c"></path><path d="m4709 53809 16382 7436 15420-7000-16382-7437-15420 7000z" fill="#666"></path><path d="m17346 70904h6527l529 5501 1597 1173 9503 3012s1246 685 1612 2602c161 841 501 17666 856 24852-13935-4621-25417-14621-31984-27540l9299-2968 1533-1131z" fill="#f0b97d"></path><path d="m25426 79258c-1575 1840-6835 2634-9732-509l4916 14633z" fill="#fff"></path><path d="m12461 62550c-2047-363-302 5750 1193 4839l803 2356c723 2122 2546 4055 3934 5585 542 597 3859 587 4394 23 1537-1616 3362-3431 4048-5620l734-2344c1498 910 3239-5201 1193-4839 142-4758-3223-9375-8149-9396-4926 21-8291 4638-8149 9396z" fill="#fed198"></path><path d="m15286 77536-9299 2968c6587 12961 18122 22982 32117 27583-401-4698-809-23950-989-24895-366-1917-1612-2602-1612-2602l-9503-3012-5389 15804-5324-15846z" fill="#fbb429"></path><path d="m26485 54091c579-68 2667 1840 2918 4050 251 2209-230 4436-230 4436-1470-71-1007 2176-1327 2531l-414 9-155-1508c-1831-1147 722-5680-1109-6078-3134 2582-7784 3537-11840 2874-1139 151 518 1591 37 3247-354 618-143 1593-143 1593l-530 66s-335-2795-1356-2784c-248-1289-350-2057-282-3198 350-5840 8201-9165 14430-5238z" fill="#666"></path><path d="m12064 54412c3715-2830 13976-2885 17290-26l175 4616c-5784-1717-11753-1560-17666 176l202-4767z" fill="#807d7d"></path><path d="m8888 52082 26 8183v253h-480v-253-8028c17-470 421-534 454-155z" fill="#fff"></path><path d="m7793 61741c0 2180-458 4056-483 4181-26 125 415 536 500 125 84-411-8 9 381 36 384 26 463-164 466-170 2 6 82 196 466 170 389-27 297-447 381-36 85 411 525 0 499-125-25-125-482-2001-482-4181-21-835-347-1228-864-1348-517 120-844 513-864 1348z" fill="#fbb429"></path><path d="m8667 60393c857 0 882 544 838 1047-189-164-494-271-838-271s-649 107-838 271c-30-585-18-1047 838-1047z" fill="#807d7d"></path><g><path d="m77684 53204 14965 6793 14086-6395-14965-6793z" fill="#666"></path><path d="m81856 76831c1471-2473 3789-5343 1435-9707-3466-15153 12506-18226 14921-11972 3929 1482 3825 9639 1804 13907-90 1757-1917 3289 1384 7821l238-52h-1c-4281 1241-15256 669-19781 3z" fill="#666"></path><path d="m89198 73637c-147 2713-1110 3738-2446 4452-679 600-6643 1318-7449 3497-171 462-687 14879-1176 24417 11418-5133 20783-14019 26526-25088-1714-1823-6712-2259-7301-2751-1306-731-2245-1806-2390-4527 0 0-1952 1514-3166 1281s-2598-1281-2598-1281z" fill="#f0b97d"></path><path d="m86053 69186c1204 2579 1650 3586 3145 4746 0 0 1384 1068 2598 1306s3166-1306 3166-1306c1496-1159 1941-2166 3145-4746 295 157 604 371 843 96 240-275 1381-3843 1175-4324-205-481-406-174-712 44 16-104-242 1289-238 1077 29-1684-1155-1951-1526-6408-5458 5416-10557 2931-12334 3293-515 105-666 1423-571 2038-1926-1375 415 4224 464 4280 240 275 548 62 843-96z" fill="#fed198"></path><path d="m86751 78088c-2255 944-5763 986-7519 3283-333 435-1912 15942-3089 25476 12316-4967 22437-14229 28510-25931-1854-2088-5514-1898-7260-2835l-5122 10469z" fill="#fbb429"></path><path d="m83913 53898c3856-2585 13245-2474 16686 138l355 4325c-6003-1568-11299-1488-17437 98l397-4560z" fill="#807d7d"></path><path d="m89168 82661c1594 567 4304 570 5985-2l-2882 5891-3104-5889z" fill="#fff"></path><path d="m81043 51736 24 7368v228h-438v-228-7228c16-423 385-481 414-140z" fill="#fff"></path><path d="m80043 60449c0 1991-418 3705-441 3819s379 490 457 114c77-375-8 8 349 33 350 24 423-150 425-155 2 6 75 179 426 155 355-25 271-408 348-33 77 376 479 0 456-114-24-114-441-1828-441-3819-19-762-318-1122-790-1232-472 110-770 470-789 1232z" fill="#fbb429"></path><path d="m80832 59218c782 0 806 497 766 957-172-150-451-247-766-247s-593 97-766 247c-28-534-16-957 766-957z" fill="#807d7d"></path></g><g><path d="m25840 30222 31468 14285 29621-13446-31467-14285-29621 13447z" fill="#666"></path><path d="m50116 63060h12536l1016 10566 3068 2252 18255 5786s2394 1317 3097 5000c371 1945 1243 6943 2065 11957-9502 7649-21579 12230-34727 12230-12587 0-24193-4199-33498-11269 1098-5343 2409-11115 2753-12919 591-3096 3097-5000 3097-5000l18379-5866 2943-2172 1015-10567z" fill="#f0b97d"></path><path d="m65635 79107c-3026 3534-13129 5060-18694-978l9444 28108 9251-27130z" fill="#20d0c2"></path><path d="m40730 47012c-3931-697-580 11045 2292 9294l1541 4526c1388 4077 4890 7790 7555 10728 1040 1146 7412 1128 8442 44 2951-3104 6458-6590 7774-10795l1410-4503c2876 1749 6221-9990 2292-9294 273-9140-6191-18008-15653-18048-9462 40-15925 8908-15653 18048z" fill="#fed198"></path><path d="m46157 75799-18379 5866s-2506 1904-3097 4999c-344 1803-1655 7576-2753 12919 9305 7070 20911 11269 33498 11269 13148 0 25225-4581 34727-12231-822-5015-1694-10012-2065-11957-704-3682-3097-4999-3097-4999l-18255-5786-10352 30359z" fill="#0e7886"></path><path d="m67670 30764c1110-129 5123 3535 5604 7780 481 4244-443 8522-443 8522-2823-138-1934 4179-2549 4861l-794 18-297-2897c-3516-2203 1387-10911-2130-11674-6020 4959-14951 6794-22743 5520-2187 291 995 3056 72 6236-680 1188-274 3060-274 3060l-1017 127s-643-5369-2605-5347c-476-2475-672-3951-541-6142 672-11219 15754-17607 27718-10063z" fill="#666"></path><path d="m39968 31380c7136-5435 26846-5542 33212-49l335 8866c-11110-3298-22575-2996-33935 338l388-9156z" fill="#807d7d"></path><path d="m33868 26904 50 15719v487h-921v-487-15421c32-901 809-1025 871-298z" fill="#fff"></path><path d="m31763 45459c0 4187-879 7790-928 8030s797 1030 960 240-16 17 732 68c737 51 890-314 895-326 5 12 159 377 895 326 749-51 570-858 733-68 163 789 1009 0 960-240-48-240-927-3844-927-8030-40-1603-668-2359-1660-2591-993 231-1621 987-1660 2591z" fill="#fbb429"></path><path d="m33443 42868c1646 0 1694 1045 1610 2013-363-315-948-519-1610-519s-1247 204-1610 519c-58-1124-35-2013 1610-2013z" fill="#807d7d"></path></g></g></g></svg>