<svg xmlns="http://www.w3.org/2000/svg" xmlns:xodm="http://www.corel.com/coreldraw/odm/2003" clip-rule="evenodd" fill-rule="evenodd" height="512" viewBox="0 0 512 512" width="512"><g id="Layer_x0020_1"><path d="m95.03 288.88c-.88 0-1.76-.25-2.54-.76-2.13-1.41-2.71-4.27-1.31-6.4 5.55-8.4 9.13-17.48 10.64-27 .4-2.52 2.76-4.24 5.28-3.84 1.71.27 3.05 1.45 3.61 2.97h16.39c.53-1.59 1.91-2.84 3.68-3.12 2.52-.39 4.88 1.33 5.27 3.85 1.55 9.86 5.3 19.23 11.15 27.87 1.43 2.11.88 4.98-1.23 6.41-.8.53-1.7.79-2.59.79-1.48 0-2.93-.71-3.82-2.02-6.63-9.77-11.95 4.83-13.71-6.38l-.03-.23h-15.92c-.01.13-.03.26-.05.39-1.72 10.83-4.69-4.1-10.97 5.4-.88 1.34-2.35 2.07-3.85 2.07z" fill="#e0bba2"></path><path d="m202.17 369.45h-167.79c-2.55 0-4.61-2.07-4.61-4.62v-.13c.07-48.74 39.75-88.37 88.5-88.37 48.76 0 88.44 39.63 88.51 88.37v.01.12.12.12l-.01.12-.01.12-.01.11-.02.12-.02.11-.02.11-.02.12-.03.11-.03.11-.03.11-.04.1-.04.11-.04.11-.04.1-.05.1-.04.1-.05.1v.01l-.05.09-.06.1-.06.1-.05.09-.07.09-.06.1-.06.09-.07.08-.07.09-.07.08-.08.09-.07.08-.08.08-.08.07-.08.08-.08.07-.09.07v.01l-.08.06-.09.07-.09.07-.09.06-.1.06-.09.06-.09.06-.1.05-.1.05-.1.05-.1.05-.1.05-.11.04-.11.04-.1.04-.11.03-.11.03-.11.03-.11.03-.11.03-.12.02-.11.02-.11.01-.12.02-.12.01h-.11l-.12.01h-.12z" fill="#f75c64"></path><path d="m109.31 169.59c-15.55 0-33.47-2.79-53.7-8.38v15.33c.63.7 1.3 1.39 2.02 2.07 1.86 1.75 1.95 4.67.2 6.53-.91.96-2.13 1.45-3.36 1.45-1.14 0-2.27-.41-3.16-1.25-9.99-9.41-11.94-19.98-12.2-21.77-5.42-26.59 3.71-38.81 8.18-43.01.11-12.01 3.11-19.01 3.25-19.32.11-.27.25-.52.42-.76 13.32-19.42 29.33-23.57 40.42-23.63 8.3-.05 14.98 2.16 18.18 3.45 12.66-4.97 26.64-6.74 41.6-5.25.09.01.18.02.26.03.21.03 20.97 3.14 35.97-5.96 1.41-.85 3.16-.89 4.6-.11 1.44.79 2.36 2.28 2.41 3.93.13 4.59.5 10.14.88 16.03 1.74 26.51 4.13 62.82-9.51 82.34-.9 1.28-2.33 1.97-3.79 1.97-.91 0-1.84-.27-2.64-.83-2.09-1.46-2.6-4.34-1.14-6.43.66-.95 1.28-1.95 1.86-3.01l-3.03-14.47-8.28-5.06c-3.04 4.58-7.21 9.24-12.92 13.37-11.79 8.49-27.35 12.74-46.52 12.74z" fill="#203135"></path><path d="m124.63 260.31h-12.8c-34.18 0-61.98-27.8-61.98-61.97v-42.25c0-2.55 2.07-4.61 4.62-4.61l110.66-15.06c12.04.84 21.47 10.96 21.47 23.03v38.89c0 34.17-27.8 61.97-61.97 61.97z" fill="#f9d0b4"></path><path d="m316.74 473.64h-282.52c-18.85 0-34.18-15.33-34.18-34.18v-45.67c0-18.84 15.33-34.17 34.18-34.17h358.22c2.76 0 4.99 2.24 4.99 5 0 1.36-.54 2.59-1.42 3.49l11.92 29.56.29.71-.61.49-86.17 68.08c.19.53.3 1.1.3 1.69 0 2.76-2.24 5-5 5z" fill="#b26e3b"></path><path d="m249.69 200.85c-.92 0-1.81-.17-2.63-.48-6.45-2.51-4.48-10.86-.54-27.5 1.32-5.58 3.24-13.72 3.33-16.98-16.39-12.31-26.13-31.71-26.13-52.24 0-36 29.29-65.29 65.29-65.29s65.29 29.29 65.29 65.29c0 35.91-29.14 65.14-65.02 65.29-2.77.94-10.67 8.88-15.92 14.16-11.27 11.33-17.92 17.75-23.67 17.75z" fill="#60bae2"></path><g fill="#fff"><path d="m315.82 86.72h-53.61c-2.77 0-5-2.24-5-5s2.23-5 5-5h53.61c2.76 0 5 2.24 5 5s-2.24 5-5 5z"></path><path d="m331.27 110.33h-84.52c-2.76 0-5-2.24-5-5s2.24-5 5-5h84.52c2.76 0 5 2.24 5 5s-2.24 5-5 5z"></path><path d="m315.82 133.94h-53.61c-2.77 0-5-2.24-5-5s2.23-5 5-5h53.61c2.76 0 5 2.24 5 5s-2.24 5-5 5z"></path></g><g id="_1300667504368"><path d="m385.51 382.48c-.99 0-1.99-.28-2.87-.87-2.41-1.59-3.08-4.83-1.49-7.24 6.29-9.51 10.34-19.81 12.05-30.59.46-2.86 3.14-4.8 5.99-4.35 1.94.31 3.45 1.65 4.09 3.36h18.57c.6-1.8 2.16-3.22 4.16-3.53 2.86-.44 5.53 1.5 5.98 4.36 1.75 11.17 6 21.79 12.63 31.57 1.62 2.39.99 5.64-1.4 7.26-.9.61-1.92.9-2.93.9-1.67 0-3.32-.8-4.33-2.29-7.5-11.07-13.54 5.48-15.53-7.22l-.03-.26h-18.04c-.01.14-.03.29-.05.44-1.95 12.27-5.32-4.65-12.43 6.11-1 1.52-2.67 2.35-4.37 2.35z" fill="#e0bba2"></path><path d="m506.89 473.75h-190.08c-2.89 0-5.23-2.34-5.23-5.22v-.15c.08-55.22 45.03-100.12 100.27-100.12s100.18 44.89 100.27 100.11v.02.13.01.13l-.01.13v.01l-.01.13-.01.13-.01.13-.02.13-.02.13-.03.13-.03.13-.03.12-.03.13-.04.12-.04.12-.04.12-.04.12-.05.12-.05.12-.06.11-.05.12-.06.11-.07.11-.06.11-.07.1-.06.11-.08.1-.07.1-.08.1-.08.1-.08.1-.08.09-.09.09-.08.09-.09.09-.09.09-.1.08-.09.08-.1.08-.1.08-.1.07-.11.07-.1.07-.11.07-.11.06-.11.06-.11.06-.11.06-.12.05-.11.05-.12.05-.12.05-.12.04-.13.04-.12.03-.12.04-.13.03-.13.03-.12.02-.13.02-.13.02-.14.02-.13.01-.13.01h-.14z" fill="#55acd5"></path><path d="m401.69 247.34c-17.61 0-37.92-3.17-60.83-9.5v17.38c.71.78 1.46 1.56 2.29 2.34 2.1 1.98 2.2 5.29.22 7.39-1.03 1.1-2.42 1.65-3.81 1.65-1.28 0-2.57-.47-3.58-1.42-11.32-10.66-13.52-22.64-13.81-24.66-6.15-30.13 4.2-43.97 9.26-48.73.12-13.61 3.53-21.54 3.68-21.89.13-.3.29-.59.48-.86 15.09-22 33.23-26.7 45.79-26.77 9.41-.05 16.97 2.45 20.59 3.91 14.35-5.63 30.19-7.63 47.13-5.95.1.01.2.03.3.04.23.04 23.75 3.56 40.75-6.75 1.59-.97 3.57-1.02 5.21-.12 1.64.89 2.68 2.58 2.73 4.44.15 5.2.56 11.5 1 18.16 1.97 30.04 4.67 71.18-10.78 93.28-1.02 1.46-2.64 2.24-4.29 2.24-1.04 0-2.08-.31-2.99-.95-2.37-1.65-2.95-4.91-1.29-7.28.75-1.07 1.45-2.21 2.1-3.41l-3.43-16.39-9.38-5.73c-3.44 5.18-8.16 10.47-14.64 15.14-13.35 9.62-30.98 14.44-52.7 14.44z" fill="#203135"></path><path d="m419.04 350.12h-14.5c-38.71 0-70.21-31.5-70.21-70.21v-47.86c0-2.89 2.34-5.23 5.23-5.23l125.37-17.06c13.64.96 24.32 12.41 24.32 26.09v44.06c0 38.71-31.49 70.21-70.21 70.21z" fill="#f9d0b4"></path></g></g></svg>