<svg xmlns="http://www.w3.org/2000/svg" xmlns:svg="http://www.w3.org/2000/svg" id="svg8" height="512" viewBox="0 0 33.866666 33.866668" width="512"><linearGradient id="linearGradient3363" gradientUnits="userSpaceOnUse" x1="-180.440378" x2="-180.440378" y1="97.375304" y2="99.607314"><stop id="stop2198" offset="0" stop-color="#f6f600"></stop><stop id="stop2200" offset="1" stop-color="#f69134"></stop></linearGradient><g id="layer1"><path id="path11586" d="m31.751068 9.3446221-6.076115 4.0369629c-.798331.530255-2.100988.271393-2.576071-.443901-.721048-1.006844-.424966-2.098394.470256-2.9936149l2.560567-2.582788-2.560567-2.582788c-.895222-.8952223-1.191304-1.9867713-.470256-2.9936163.475083-.715293 1.77774-.97415502 2.576071-.4439l6.076115 4.0369623c1.386632.9307879 1.447173 3.131157 0 3.966683z" fill="#ff8645"></path><path id="path7762" d="m24.408203 4.5332031c-5.052437 0-9.531395 4.1521126-9.195312 9.1933589l.529167 7.9375c.000215 1.315586.538059 2.381723 1.853645 2.38086 1.314823-.000216 1.851477-1.066037 1.851692-2.38086l.529167-7.9375c.166057-2.490861 1.93525-4.4316401 4.431641-4.4316401h1.587891c1.314823-.0002158 2.380643-1.0660365 2.380859-2.3808594-.000216-1.3148229-1.066036-2.3806436-2.380859-2.3808594z" fill="#ffb43f"></path><path id="path7758" d="m7.4023438 6.2832031c-3.443396-.4801496-6.3496094 2.8748516-6.3496094 6.3515629v13.824218c0 3.476711 2.8728981 6.34961 6.3496094 6.34961h19.0546872c3.476712 0 6.542455-2.878251 6.34961-6.34961l-.529167-9.52539c-.07037-1.314823-.53687-2.380645-1.851693-2.38086-1.314823.000216-1.769626 1.042651-1.851692 2.38086l-.529167 9.52539c-.05107.919247-.667226 1.585938-1.587891 1.585938h-19.0546872c-.9206638 0-1.5878907-.665274-1.5878907-1.585938v-13.824218c0-.920664.6760487-1.460743 1.5878907-1.587891l3.7949222-.529167c1.232141-.215189 2.380643-.5368695 2.380859-1.8516924.000863-1.3155855-1.147955-1.6384562-2.380859-1.8536458z" fill="#00a1ff"></path></g></svg>