<svg xmlns="http://www.w3.org/2000/svg" id="flat" height="512" viewBox="0 0 64 64" width="512"><path d="m11 15h42a4 4 0 0 1 4 4v30a0 0 0 0 1 0 0h-50a0 0 0 0 1 0 0v-30a4 4 0 0 1 4-4z" fill="#63c7ea"></path><path d="m57 43v6h-50v-30a4 4 0 0 1 4-4h6v24a4 4 0 0 0 4 4z" fill="#27b1d6"></path><path d="m5 49h54a2 2 0 0 1 2 2v2a4 4 0 0 1 -4 4h-50a4 4 0 0 1 -4-4v-2a2 2 0 0 1 2-2z" fill="#0f4b6d"></path><path d="m61 53a4 4 0 0 1 -4 4h-50a4 4 0 0 1 -4-4v-2a2 2 0 0 1 2-2h6a4 4 0 0 0 4 4z" fill="#083e56"></path><path d="m24 49h16a0 0 0 0 1 0 0v2a2 2 0 0 1 -2 2h-12a2 2 0 0 1 -2-2v-2a0 0 0 0 1 0 0z" fill="#083e56"></path><path d="m32 21v6l-5.41-5.41a2 2 0 0 0 -1.42-.59h-11.17a2 2 0 0 1 -2-2v-10a2 2 0 0 1 2-2h16a2 2 0 0 1 2 2z" fill="#fbb03b"></path><path d="m32 9a2 2 0 0 1 2-2h16a2 2 0 0 1 2 2v10a2 2 0 0 1 -2 2h-11.17a2 2 0 0 0 -1.42.59l-5.41 5.41z" fill="#fbb03b"></path><path d="m32 16.42v10.58l-5.41-5.41a2 2 0 0 0 -1.42-.59h-11.17a2 2 0 0 1 -2-2v-10a2 2 0 0 1 2-2h.58a14 14 0 0 0 13.42 10 13.92 13.92 0 0 0 4-.58z" fill="#f99a3d"></path><path d="m52 16.86v2.14a2 2 0 0 1 -2 2h-11.17a2 2 0 0 0 -1.42.59l-5.41 5.41v-18a2 2 0 0 1 2-2h2.59a13.74 13.74 0 0 0 2.41 4.65 14 14 0 0 0 11 5.35 14.6 14.6 0 0 0 2-.14z" fill="#f99a3d"></path><g fill="#0f4b6d"><path d="m20 18a1 1 0 0 1 -.71-.29l-2-2a1 1 0 0 1 1.42-1.42l1.29 1.3 5.29-5.3a1 1 0 0 1 1.42 1.42l-6 6a1 1 0 0 1 -.71.29z"></path><path d="m43.41 14 2.3-2.29a1 1 0 0 0 -1.42-1.42l-2.29 2.3-2.29-2.3a1 1 0 0 0 -1.42 1.42l2.3 2.29-2.3 2.29a1 1 0 0 0 0 1.42 1 1 0 0 0 1.42 0l2.29-2.3 2.29 2.3a1 1 0 0 0 1.42 0 1 1 0 0 0 0-1.42z"></path><path d="m41 37h-18a1 1 0 0 1 0-2h18a1 1 0 0 1 0 2z"></path><path d="m41 41h-18a1 1 0 0 1 0-2h18a1 1 0 0 1 0 2z"></path></g></svg>